# xmcd
#
# Track frame offsets: 
#        150
#        16252
#        30591
#        44363
#        60542
#        73290
#        93039
#        105711
#        119486
#        134567
#        148955
#        165551
#        179572
#        197263
#        206550
#        224876
#        244205
#        260548
#
# Disc length: 3759 seconds
#
# Revision: 1
# Processed by: cddbd v1.5.2PL0 Copyright (c) Steve Scherf et al.
# Submitted via: ExactAudioCopy v1.0b3
#
DISCID=170ead12
DTITLE=Various Artist - Ultimate America - Disc 3
DYEAR=2015
DGENRE=Country
TTITLE0=Carrie Underwood - All American Girl
TTITLE1=John Denver - Take Me Home Country Roads
TTITLE2=Kenny Chesney - American Kids
TTITLE3=Charlie Daniels - The Devil Went Down To Georgia
TTITLE4=Gretchen Wilson - California Girls
TTITLE5=Marty Robbins - El Paso
TTITLE6=Johnny Cash - My Old Kentucky Home
TTITLE7=The Highwaymen - Highwayman
TTITLE8=Waylon Jennings - Luckenbach Texas (Back To The Basics of Love
TTITLE8=)
TTITLE9=Alabama - Song Of The South
TTITLE10=Pistol Annies - Boys From The South
TTITLE11=The Henningsens - American Beautiful
TTITLE12=Dr. Hook and The Medicine Show - The Ballad Of Lucy Jordan
TTITLE13=Lester Flatt, Earl Scruggs and The Foggy Mountain Boys - The Ba
TTITLE13=llad Of Jed Clampett
TTITLE14=Alan Jackson - Country Boy
TTITLE15=Sara Evans - A Little Bit Stronger
TTITLE16=Kelly Clarrkson - Mr. Know It All (Country Version)
TTITLE17=Miranda Lambert - Oklahoma Sky
EXTD=
EXTT0=
EXTT1=
EXTT2=
EXTT3=
EXTT4=
EXTT5=
EXTT6=
EXTT7=
EXTT8=
EXTT9=
EXTT10=
EXTT11=
EXTT12=
EXTT13=
EXTT14=
EXTT15=
EXTT16=
EXTT17=
PLAYORDER=
